<?xml version="1.0" standalone="no"?>
<!DOCTYPE svg PUBLIC "-//W3C//DTD SVG 20010904//EN"
 "http://www.w3.org/TR/2001/REC-SVG-20010904/DTD/svg10.dtd">
<svg version="1.0" xmlns="http://www.w3.org/2000/svg"
 width="404.000000pt" height="436.000000pt" viewBox="0 0 404.000000 436.000000"
 preserveAspectRatio="xMidYMid meet">

<g transform="translate(0.000000,436.000000) scale(0.100000,-0.100000)"
fill="#000000" stroke="none">
<path d="M1833 3740 c-108 -9 -262 -41 -371 -76 -409 -134 -774 -467 -938
-854 -71 -169 -89 -284 -100 -631 l-7 -216 -41 -15 c-82 -30 -111 -123 -110
-353 1 -267 69 -496 180 -611 29 -30 59 -54 67 -54 9 0 36 -16 61 -35 26 -19
50 -35 54 -35 5 0 19 -11 32 -25 13 -14 35 -25 50 -25 33 0 192 -35 247 -55
23 -8 66 -30 95 -48 29 -19 62 -37 73 -41 11 -3 34 -19 52 -36 18 -16 37 -30
42 -30 6 0 11 -4 11 -10 0 -5 19 -19 43 -30 44 -21 79 -41 87 -50 17 -19 71
-50 87 -50 10 0 29 -9 43 -20 14 -11 28 -20 32 -20 4 0 27 -13 51 -30 25 -16
49 -30 54 -30 4 0 19 -10 33 -22 46 -42 135 -105 180 -128 25 -12 51 -27 59
-33 44 -36 143 -47 191 -22 17 9 33 16 37 16 38 5 155 89 173 125 l16 30 26
-37 c39 -55 80 -64 212 -50 115 12 151 25 188 69 20 24 39 31 112 46 250 50
443 152 601 318 134 140 204 306 205 480 0 58 3 70 24 90 69 64 102 195 93
361 -10 172 -44 257 -115 286 l-29 12 -6 192 c-3 106 -11 220 -17 255 -11 56
-10 65 5 82 22 24 17 61 -25 191 -68 209 -200 425 -365 598 -248 258 -510 403
-869 481 -209 46 -332 55 -523 40z m277 -20 c6 -4 -45 -7 -115 -7 -75 1 -129
-3 -133 -9 -4 -6 -47 -17 -97 -24 -49 -8 -92 -14 -95 -15 -3 -1 -19 -4 -36 -8
-42 -10 -144 -16 -144 -8 0 18 193 62 320 74 71 6 288 5 300 -3z m215 -26
c103 -20 123 -37 35 -31 -36 3 -66 6 -67 6 -2 1 -5 1 -8 1 -3 1 -23 7 -46 15
-23 8 -54 15 -70 15 -15 0 -31 5 -34 10 -8 13 80 6 190 -16z m-1074 -157 c-10
-9 -11 -8 -5 6 3 10 9 15 12 12 3 -3 0 -11 -7 -18z m29 -12 c-7 -8 -17 -15
-23 -15 -6 0 -2 7 9 15 25 19 30 19 14 0z m833 -96 c23 -12 83 -45 132 -74
136 -79 269 -150 282 -150 6 0 15 -3 18 -7 4 -4 14 -4 23 -1 10 4 13 2 8 -5
-4 -7 6 -18 28 -29 19 -9 32 -21 29 -27 -3 -6 0 -5 8 2 13 12 38 18 26 5 -6
-6 78 -45 130 -61 28 -9 143 -92 143 -103 0 -5 -5 -9 -11 -9 -16 0 32 -31 176
-118 66 -39 134 -85 150 -102 29 -30 30 -36 33 -137 4 -122 -3 -173 -23 -173
-8 0 -15 4 -15 8 0 9 -79 32 -109 32 -11 0 -21 6 -24 13 -2 6 -3 3 -1 -7 3
-21 -12 -56 -25 -56 -5 0 -6 11 -4 23 4 20 1 23 -18 22 -13 -1 -25 -7 -27 -13
-2 -7 -8 -12 -13 -12 -6 0 -7 5 -4 10 9 15 -4 30 -21 23 -11 -4 -12 -9 -3 -19
9 -11 8 -14 -5 -14 -9 0 -16 -4 -16 -10 0 -5 7 -10 16 -10 8 0 13 -4 9 -9 -7
-12 -64 -11 -71 1 -3 4 2 8 11 8 9 0 14 4 10 9 -3 6 3 14 12 20 28 16 -4 13
-37 -4 -29 -15 -65 -11 -54 6 8 14 -3 11 -46 -11 -22 -11 -40 -25 -40 -31 0
-6 3 -8 8 -6 4 3 7 -8 7 -23 0 -18 -3 -26 -9 -20 -13 13 -29 13 -21 0 9 -15
-11 -12 -24 3 -6 8 -7 17 -3 22 4 4 -3 2 -15 -4 -13 -6 -23 -14 -23 -17 0 -3
4 -3 9 1 5 3 13 0 17 -6 4 -8 3 -9 -4 -5 -7 4 -12 1 -12 -6 0 -9 -2 -10 -8 -2
-8 13 -57 11 -75 -4 -7 -5 -46 -28 -87 -50 -41 -22 -149 -82 -240 -134 -251
-145 -219 -135 -289 -91 -128 80 -211 124 -222 117 -7 -4 -9 -3 -5 4 3 6 2 13
-4 17 -5 3 -10 3 -10 -2 0 -4 -16 -19 -36 -32 -29 -20 -37 -22 -44 -11 -7 11
-12 7 -21 -16 -7 -16 -14 -30 -15 -32 -1 -2 -17 3 -36 11 -32 14 -36 13 -47
-5 -7 -11 -9 -29 -5 -41 6 -19 5 -20 -9 -9 -12 10 -21 11 -36 3 -14 -8 -21 -8
-24 2 -4 9 -8 9 -14 0 -4 -6 -20 -14 -34 -18 -20 -5 -25 -11 -22 -25 3 -11 8
-18 12 -17 3 1 13 -4 21 -11 8 -6 26 -21 40 -33 l25 -20 -25 12 c-46 22 -624
371 -658 396 l-33 25 3 198 c3 175 1 197 -12 188 -8 -6 -2 1 13 16 16 15 25
31 21 38 -4 6 -3 8 4 4 5 -3 12 -2 14 3 1 5 10 11 18 13 8 2 19 8 25 14 13 15
69 28 60 14 -3 -5 -15 -10 -25 -10 -10 0 -22 -4 -25 -10 -11 -18 17 -10 77 22
33 18 55 34 48 36 -6 2 -17 -1 -23 -7 -11 -11 -47 -16 -47 -6 0 10 53 64 59
61 3 -2 12 2 19 10 8 9 9 14 2 14 -14 0 4 18 41 42 25 16 124 49 137 46 13 -4
52 13 52 22 0 5 10 15 23 21 20 11 21 11 8 -4 -8 -10 -9 -17 -3 -17 6 0 14 5
17 10 3 6 16 10 28 10 21 1 21 1 4 14 -21 16 -12 25 23 21 14 -1 34 3 45 9 26
16 55 27 55 20 0 -2 -12 -9 -26 -14 -14 -6 -22 -15 -19 -20 8 -13 71 25 67 40
-1 5 3 10 9 10 5 0 7 5 3 12 -4 7 -3 8 5 4 6 -4 8 -12 5 -18 -7 -11 133 61
296 152 200 112 217 117 293 79z m497 -249 c0 -5 -2 -10 -4 -10 -3 0 -8 5 -11
10 -3 6 -1 10 4 10 6 0 11 -4 11 -10z m-1912 -572 c-9 -16 -14 -85 -16 -238
l-4 -216 -51 -13 c-29 -7 -63 -14 -77 -15 -24 -1 -25 1 -23 56 3 83 19 133 58
174 20 21 38 48 41 61 4 13 14 23 23 23 13 0 16 7 13 34 -4 32 5 73 30 139 6
15 13 26 15 23 3 -2 -1 -15 -9 -28z m2662 -109 c0 -5 8 -37 17 -71 14 -48 27
-72 61 -105 48 -46 54 -65 67 -207 l8 -79 -24 7 c-13 4 -60 10 -103 13 -68 5
-81 3 -92 -12 -7 -9 -50 -38 -96 -64 -46 -26 -155 -92 -243 -146 -398 -244
-855 -518 -859 -514 -4 4 494 309 1012 620 116 70 172 109 172 121 0 9 5 20
10 23 6 4 10 65 10 149 0 79 3 191 7 250 l6 107 24 -42 c12 -22 23 -45 23 -50z
m-310 -71 c0 -4 -7 -8 -15 -8 -8 0 -15 4 -15 8 0 5 7 9 15 9 8 0 15 -4 15 -9z
m-1543 -393 c0 -8 -6 -15 -13 -15 -15 0 -26 15 -17 24 12 11 30 6 30 -9z
m-880 -27 c-3 -8 -6 -5 -6 6 -1 11 2 17 5 13 3 -3 4 -12 1 -19z m1450 -25 c-3
-10 -5 -2 -5 17 0 19 2 27 5 18 2 -10 2 -26 0 -35z m-1440 -30 c-3 -10 -5 -4
-5 12 0 17 2 24 5 18 2 -7 2 -21 0 -30z m743 -308 c283 -169 520 -312 525
-317 16 -16 -48 18 -146 78 -49 29 -92 54 -95 54 -2 0 -22 12 -44 26 -21 14
-44 23 -50 19 -6 -3 -9 -1 -8 7 2 7 -5 12 -14 12 -10 -1 -15 2 -12 7 3 5 -2 9
-10 9 -9 0 -16 4 -16 9 0 16 -32 22 -49 9 -9 -7 -13 -9 -9 -4 9 10 -9 46 -22
46 -5 0 -7 -7 -4 -15 4 -9 -2 -18 -17 -24 -13 -5 -18 -10 -11 -10 6 -1 12 -5
12 -9 0 -5 -13 -7 -30 -4 -24 3 -30 1 -30 -14 0 -9 3 -14 7 -11 9 9 34 -13 27
-24 -3 -5 1 -9 8 -9 11 0 10 -2 0 -9 -10 -6 -5 -10 17 -14 24 -5 31 -11 30
-29 -1 -18 -2 -19 -6 -5 -4 15 -12 17 -59 12 -35 -4 -54 -3 -54 4 0 24 -19 9
-25 -19 -4 -17 -11 -28 -16 -25 -5 4 -6 -1 -3 -9 3 -8 15 -17 27 -19 12 -2 5
-4 -16 -4 -40 0 -66 -21 -44 -36 7 -5 4 -6 -9 -2 -16 4 -23 0 -27 -16 -5 -18
-11 -20 -32 -15 -31 8 -57 -8 -48 -30 3 -8 0 -21 -6 -28 -10 -11 -4 -19 28
-37 23 -12 39 -24 36 -27 -4 -5 -245 136 -245 144 0 2 19 -5 43 -17 23 -12 36
-15 30 -8 -18 18 -16 32 3 25 14 -5 15 -4 5 8 -7 8 -18 13 -24 11 -7 -3 -20 2
-30 9 -15 12 -16 18 -8 35 15 28 14 38 -2 17 -8 -11 -27 -19 -45 -20 -21 -1
-31 -5 -27 -13 6 -18 -10 -16 -26 4 -11 12 -15 78 -20 277 -4 144 -10 279 -14
301 l-8 39 24 -15 c13 -9 256 -154 539 -324z m-914 208 c16 -16 17 -16 12 -1
-5 13 -2 16 18 14 13 -2 24 -6 24 -9 0 -4 0 -14 0 -23 0 -11 -6 -14 -20 -9
-14 4 -22 1 -27 -11 -6 -16 -7 -16 -14 2 -7 18 -8 18 -8 -1 -1 -18 -3 -17 -15
5 -8 16 -9 29 -3 38 12 15 12 15 33 -5z m-59 -10 c4 -10 11 -21 17 -25 15 -10
2 -20 -17 -13 -8 4 -17 17 -20 31 -5 28 10 33 20 7z m153 -9 c0 -8 -4 -14 -10
-14 -5 0 -10 9 -10 21 0 11 5 17 10 14 6 -3 10 -13 10 -21z m-150 -38 c0 -3
-4 -8 -10 -11 -5 -3 -10 -1 -10 4 0 6 5 11 10 11 6 0 10 -2 10 -4z m1053 -264
c-7 -4 -14 -19 -16 -32 -5 -31 -37 -41 -37 -12 0 19 34 51 55 51 6 1 4 -3 -2
-7z m-123 -132 c-8 -5 -22 -10 -30 -10 -13 0 -13 1 0 10 8 5 22 10 30 10 13 0
13 -1 0 -10z m-27 -67 c-7 -2 -21 -2 -30 0 -10 3 -4 5 12 5 17 0 24 -2 18 -5z
m730 -84 c29 -16 47 -29 42 -29 -13 0 -165 88 -165 96 0 3 16 -4 36 -17 20
-12 59 -34 87 -50z m1199 -521 c44 -2 74 -7 70 -12 -3 -5 3 -6 14 -2 15 6 14
2 -6 -20 -37 -40 -141 -111 -201 -138 -66 -30 -210 -72 -290 -85 l-60 -10 -39
39 c-22 22 -40 42 -40 44 0 2 16 7 36 11 47 8 139 49 178 78 86 64 190 109
236 101 14 -2 59 -5 102 -6z"/>
<path d="M1389 3145 c-1 -5 -1 -13 0 -17 0 -3 -12 -11 -27 -17 -15 -5 -43 -24
-62 -40 -30 -26 -23 -24 48 15 74 42 99 64 72 64 -5 0 -10 -6 -10 -12 0 -9 -4
-8 -10 2 -5 8 -10 11 -11 5z"/>
<path d="M1835 3031 c-104 -59 -269 -153 -365 -208 -96 -55 -210 -119 -252
-143 -43 -23 -78 -48 -78 -55 0 -8 12 -22 28 -33 53 -38 294 -172 308 -172 9
0 117 57 242 127 125 70 250 140 277 155 28 15 57 28 65 28 16 0 242 -128 581
-328 26 -16 30 -14 175 74 102 62 150 96 152 110 2 16 -19 33 -105 84 -59 35
-214 126 -343 203 -129 77 -283 168 -342 203 -59 35 -118 64 -130 64 -13 -1
-108 -49 -213 -109z"/>
<path d="M2890 2460 c0 -5 5 -10 10 -10 6 0 10 5 10 10 0 6 -4 10 -10 10 -5 0
-10 -4 -10 -10z"/>
<path d="M1300 1664 c8 -10 15 -20 16 -22 1 -2 5 1 8 7 4 5 -4 15 -16 22 -22
12 -22 11 -8 -7z"/>
<path d="M1255 1656 c-17 -12 -17 -13 3 -11 26 2 37 11 24 19 -5 3 -17 -1 -27
-8z"/>
<path d="M1322 1638 c-16 -16 -15 -28 3 -28 8 0 15 5 15 11 0 8 6 7 17 -2 14
-12 16 -12 8 0 -6 10 -4 12 4 6 9 -5 10 -10 2 -18 -17 -17 -13 -31 4 -17 13
11 18 10 31 -6 14 -19 14 -19 12 1 -2 11 -19 30 -38 42 -41 27 -42 27 -58 11z"/>
<path d="M1337 1593 c-4 -3 -7 -11 -7 -17 0 -6 5 -5 12 2 6 6 9 14 7 17 -3 3
-9 2 -12 -2z"/>
<path d="M1270 1520 c0 -5 7 -7 15 -4 8 4 15 8 15 10 0 2 -7 4 -15 4 -8 0 -15
-4 -15 -10z"/>
<path d="M1345 1460 c-3 -5 -1 -10 4 -10 6 0 11 5 11 10 0 6 -2 10 -4 10 -3 0
-8 -4 -11 -10z"/>
<path d="M1045 1360 c3 -5 8 -10 11 -10 2 0 4 5 4 10 0 6 -5 10 -11 10 -5 0
-7 -4 -4 -10z"/>
<path d="M1160 1340 c0 -5 9 -14 20 -20 16 -8 20 -8 20 4 0 7 -7 17 -16 20
-21 8 -24 8 -24 -4z"/>
<path d="M1090 1316 c0 -2 7 -7 16 -10 8 -3 12 -2 9 4 -6 10 -25 14 -25 6z"/>
<path d="M1080 1252 c0 -5 7 -13 16 -16 10 -4 14 -1 12 6 -5 15 -28 23 -28 10z"/>
</g>
</svg>
